<svg width="30" height="30" viewBox="0 0 30 30" fill="none" xmlns="http://www.w3.org/2000/svg">
<g id="shopping_cart_24px">
<path id="icon/action/shopping_cart_24px" fill-rule="evenodd" clip-rule="evenodd" d="M22.8704 14.9625C22.4454 15.7375 21.6204 16.25 20.6829 16.25H11.3704L9.99536 18.75H24.9954V21.25H9.99536C8.09536 21.25 6.89536 19.2125 7.80786 17.5375L9.49536 14.4875L4.99536 5H2.49536V2.5H6.58286L7.75786 5H26.2579C27.2079 5 27.8079 6.025 27.3454 6.85L22.8704 14.9625ZM24.1328 7.5H8.94534L11.9078 13.75H20.6828L24.1328 7.5ZM9.99536 22.5C8.62036 22.5 7.50786 23.625 7.50786 25C7.50786 26.375 8.62036 27.5 9.99536 27.5C11.3704 27.5 12.4954 26.375 12.4954 25C12.4954 23.625 11.3704 22.5 9.99536 22.5ZM20.0079 25C20.0079 23.625 21.1204 22.5 22.4954 22.5C23.8704 22.5 24.9954 23.625 24.9954 25C24.9954 26.375 23.8704 27.5 22.4954 27.5C21.1204 27.5 20.0079 26.375 20.0079 25Z" fill="#262626"/>
</g>
</svg>
