<svg width="40" height="40" viewBox="0 0 40 40" fill="none" xmlns="http://www.w3.org/2000/svg">
<circle cx="20" cy="20" r="20" fill="white"/>
<path d="M27.9297 16.4375C28.7109 15.8516 29.4141 15.1484 29.9609 14.3281C29.2578 14.6406 28.4375 14.875 27.6172 14.9531C28.4766 14.4453 29.1016 13.6641 29.4141 12.6875C28.6328 13.1562 27.7344 13.5078 26.8359 13.7031C26.0547 12.8828 25 12.4141 23.8281 12.4141C21.5625 12.4141 19.7266 14.25 19.7266 16.5156C19.7266 16.8281 19.7656 17.1406 19.8438 17.4531C16.4453 17.2578 13.3984 15.6172 11.3672 13.1562C11.0156 13.7422 10.8203 14.4453 10.8203 15.2266C10.8203 16.6328 11.5234 17.8828 12.6562 18.625C11.9922 18.5859 11.3281 18.4297 10.7812 18.1172V18.1562C10.7812 20.1484 12.1875 21.7891 14.0625 22.1797C13.75 22.2578 13.3594 22.3359 13.0078 22.3359C12.7344 22.3359 12.5 22.2969 12.2266 22.2578C12.7344 23.8984 14.2578 25.0703 16.0547 25.1094C14.6484 26.2031 12.8906 26.8672 10.9766 26.8672C10.625 26.8672 10.3125 26.8281 10 26.7891C11.7969 27.9609 13.9453 28.625 16.2891 28.625C23.8281 28.625 27.9297 22.4141 27.9297 16.9844C27.9297 16.7891 27.9297 16.6328 27.9297 16.4375Z" fill="#C62121"/>
</svg>
