<svg width="40" height="40" viewBox="0 0 40 40" fill="none" xmlns="http://www.w3.org/2000/svg">
<circle cx="20" cy="20" r="20" fill="white"/>
<path d="M30.1953 15.3828C29.9609 14.4453 29.2188 13.7031 28.3203 13.4688C26.6406 13 20 13 20 13C20 13 13.3203 13 11.6406 13.4688C10.7422 13.7031 10 14.4453 9.76562 15.3828C9.29688 17.0234 9.29688 20.5391 9.29688 20.5391C9.29688 20.5391 9.29688 24.0156 9.76562 25.6953C10 26.6328 10.7422 27.3359 11.6406 27.5703C13.3203 28 20 28 20 28C20 28 26.6406 28 28.3203 27.5703C29.2188 27.3359 29.9609 26.6328 30.1953 25.6953C30.6641 24.0156 30.6641 20.5391 30.6641 20.5391C30.6641 20.5391 30.6641 17.0234 30.1953 15.3828ZM17.8125 23.7031V17.375L23.3594 20.5391L17.8125 23.7031Z" fill="#C62121"/>
</svg>
