<svg width="94" height="70" viewBox="0 0 94 70" fill="none" xmlns="http://www.w3.org/2000/svg">
<g filter="url(#filter0_d)">
<rect y="26" width="90" height="40" rx="2" fill="#C62121"/>
<rect x="1" y="27" width="88" height="38" rx="1" stroke="white" stroke-width="2"/>
</g>
<path d="M20.7802 35.456C15.6442 35.456 12.5722 39.536 12.5722 44.432C12.5722 49.328 15.6442 53.408 20.7802 53.408C25.9162 53.408 28.9882 49.328 28.9882 44.432C28.9882 39.536 25.9162 35.456 20.7802 35.456ZM20.7802 37.904C24.4522 37.904 25.9882 41.144 25.9882 44.432C25.9882 47.72 24.4522 50.96 20.7802 50.96C17.1082 50.96 15.5722 47.72 15.5722 44.432C15.5722 41.144 17.1082 37.904 20.7802 37.904ZM34.7185 38.312H39.1585C40.7425 38.312 42.1105 38.888 42.1105 41.144C42.1105 43.304 40.4545 43.976 39.1105 43.976H34.7185V38.312ZM31.7185 53H34.7185V46.424H39.2785C44.1745 46.448 45.1105 43.28 45.1105 41.168C45.1105 39.032 44.1745 35.864 39.2785 35.864H31.7185V53ZM47.7263 53H60.2303V50.408H50.7263V45.392H59.3663V42.944H50.7263V38.456H60.0623V35.864H47.7263V53ZM62.7235 53H65.5795V40.4H65.6515L73.4515 53H76.6195V35.864H73.7635V48.488H73.7155L65.8915 35.864H62.7235V53Z" fill="white"/>
<line x1="0.957522" y1="26.9385" x2="42.516" y2="1.21129" stroke="white"/>
<line x1="88.4615" y1="26.982" x2="47.7342" y2="1.42347" stroke="white"/>
<circle cx="45" cy="5" r="3.5" fill="white" stroke="white" stroke-width="3"/>
<defs>
<filter id="filter0_d" x="0" y="26" width="94" height="44" filterUnits="userSpaceOnUse" color-interpolation-filters="sRGB">
<feFlood flood-opacity="0" result="BackgroundImageFix"/>
<feColorMatrix in="SourceAlpha" type="matrix" values="0 0 0 0 0 0 0 0 0 0 0 0 0 0 0 0 0 0 127 0"/>
<feOffset dx="2" dy="2"/>
<feGaussianBlur stdDeviation="1"/>
<feColorMatrix type="matrix" values="0 0 0 0 1 0 0 0 0 1 0 0 0 0 1 0 0 0 0.25 0"/>
<feBlend mode="normal" in2="BackgroundImageFix" result="effect1_dropShadow"/>
<feBlend mode="normal" in="SourceGraphic" in2="effect1_dropShadow" result="shape"/>
</filter>
</defs>
</svg>
